<?xml version="1.0" standalone="no"?><!DOCTYPE svg PUBLIC "-//W3C//DTD SVG 1.1//EN" "http://www.w3.org/Graphics/SVG/1.1/DTD/svg11.dtd"><svg t="1646276419871" class="icon" viewBox="0 0 1024 1024" version="1.1" xmlns="http://www.w3.org/2000/svg" p-id="21217" xmlns:xlink="http://www.w3.org/1999/xlink" width="200" height="200"><defs><style type="text/css"></style></defs><path d="M370.2784 133.7856h281.0368c37.632 0 73.472 16.0256 98.5088 44.1344l142.0288 159.1296c44.032 49.3056 44.8 123.5968 1.792 173.824l-279.04 325.8368c-51.4048 60.0064-143.616 61.7472-197.2736 3.7888L120.32 519.3728c-47.0016-50.7904-46.7968-129.2288 0.4096-179.8144l153.0368-163.84c24.9856-26.7776 59.904-41.9328 96.512-41.9328z" fill="#E6E6FF" p-id="21218"></path><path d="M438.9888 133.7856H357.2736c-34.9184 0-68.3008 15.1552-92.1088 41.9328l-146.0736 163.84c-45.056 50.5856-45.2608 129.024-0.4096 179.8144l283.4944 321.0752c37.5808 42.5472 94.976 52.8896 142.2336 31.6928L189.0304 434.5344c-4.7104-5.7856-4.5568-14.3872 0.3072-19.968L419.84 149.6064l19.1488-15.8208z" fill="#F8F8FF" p-id="21219"></path><path d="M576.2048 133.7856h81.7152c34.9184 0 68.3008 15.1552 92.1088 41.9328l146.0736 163.84c45.056 50.5856 45.2608 129.024 0.4096 179.8144l-283.4944 321.0752c-37.5808 42.5472-94.976 52.8896-142.2336 31.6928l355.3792-437.6064c4.7104-5.7856 4.5568-14.3872-0.3072-19.968l-230.5024-264.96-19.1488-15.8208z" fill="#C9C9F4" p-id="21220"></path><path d="M514.2528 908.4416c-43.8784 0-85.9136-18.3296-115.7632-50.5856l-297.0112-321.0752c-55.808-60.3136-55.552-154.624 0.512-214.6816l153.0368-163.84c29.696-31.7952 71.68-50.0224 115.2-50.0224h281.0368c44.8512 0 87.7568 19.2 117.6064 52.6848l142.0288 159.1296c52.3264 58.624 53.248 147.8656 2.0992 207.5648l-279.04 325.8368a157.80864 157.80864 0 0 1-116.736 55.0912c-0.9728-0.1024-1.9456-0.1024-2.9696-0.1024zM370.2784 159.3856c-29.3888 0-57.7536 12.3392-77.824 33.792l-153.0368 163.84c-37.888 40.5504-38.0416 104.2432-0.3584 144.9472l297.0112 321.0752a106.8032 106.8032 0 0 0 80.1792 34.1504c30.3616-0.5632 59.0848-14.1312 78.848-37.1712l279.04-325.8368c34.5088-40.2944 33.8944-100.5568-1.4336-140.1344l-142.0288-159.1296a106.43968 106.43968 0 0 0-79.4112-35.584H370.2784z" fill="#434A54" p-id="21221"></path><path d="M517.2224 707.6352c-15.1552 0-29.6448-6.3488-39.936-17.4592l-156.3648-169.0624a25.59488 25.59488 0 0 1 1.4336-36.1984 25.59488 25.59488 0 0 1 36.1984 1.4336l156.3648 169.0624c0.6656 0.7168 1.4848 0.9728 2.4064 1.024 0.9728 0 1.7408-0.4096 2.3552-1.1264l139.776-163.1744c9.216-10.752 25.344-11.9808 36.096-2.7648 10.752 9.216 11.9808 25.344 2.7648 36.096l-139.776 163.1744c-10.0864 11.776-24.7808 18.688-40.2432 18.9952h-1.0752z" fill="#434A54" p-id="21222"></path></svg>